<svg xmlns="http://www.w3.org/2000/svg" width="67.138" height="55.82" viewBox="0 0 67.138 55.82">
  <g id="Group_191" data-name="Group 191" transform="translate(-650.068 -465.654)">
    <g id="Icon" transform="translate(562.382 440.605)" opacity="0.64">
      <path id="Path_343" data-name="Path 343" d="M120.964,63.874a5.092,5.092,0,1,0-5.311-5.087A5.2,5.2,0,0,0,120.964,63.874Z" transform="translate(0.273 0.28)" fill="none" stroke="#fff" stroke-linecap="round" stroke-linejoin="round" stroke-width="6" opacity="0.64"/>
      <path id="Path_344" data-name="Path 344" d="M120.994,43.309a7.637,7.637,0,1,0-7.967-7.63A7.8,7.8,0,0,0,120.994,43.309Z" transform="translate(0.244)" fill="none" stroke="#fff" stroke-linecap="round" stroke-linejoin="round" stroke-width="6" opacity="0.64"/>
      <path id="Path_345" data-name="Path 345" d="M91.781,73.475a8.162,8.162,0,0,0,10.883,2.793,7.456,7.456,0,0,0,2.916-10.423A8.161,8.161,0,0,0,94.7,63.052,7.457,7.457,0,0,0,91.781,73.475Z" transform="translate(0 0.371)" fill="none" stroke="#fff" stroke-linecap="round" stroke-linejoin="round" stroke-width="6" opacity="0.64"/>
      <path id="Path_346" data-name="Path 346" d="M150.285,73.777a7.469,7.469,0,0,0-3.094-10.383,8.175,8.175,0,0,0-10.936,2.625A7.47,7.47,0,0,0,139.349,76.4,8.175,8.175,0,0,0,150.285,73.777Z" transform="translate(0.486 0.375)" fill="none" stroke="#fff" stroke-linecap="round" stroke-linejoin="round" stroke-width="6" opacity="0.64"/>
      <path id="Path_347" data-name="Path 347" d="M120.907,43.145V53.318" transform="translate(0.33 0.165)" fill="none" stroke="#fff" stroke-linecap="round" stroke-linejoin="round" stroke-width="6" opacity="0.64"/>
      <path id="Path_348" data-name="Path 348" d="M114.619,60.77l-9.2,5.087" transform="translate(0.161 0.358)" fill="none" stroke="#fff" stroke-linecap="round" stroke-linejoin="round" stroke-width="6" opacity="0.64"/>
      <path id="Path_349" data-name="Path 349" d="M126.991,60.863l9.353,5.172" transform="translate(0.396 0.359)" fill="none" stroke="#fff" stroke-linecap="round" stroke-linejoin="round" stroke-width="6" opacity="0.64"/>
    </g>
  </g>
</svg>
