<svg xmlns="http://www.w3.org/2000/svg" xmlns:xlink="http://www.w3.org/1999/xlink" width="65" height="65.231" viewBox="0 0 65 65.231">
  <defs>
    <filter id="Path_364" x="0" y="0.231" width="65" height="65" filterUnits="userSpaceOnUse">
      <feOffset dx="3" dy="3" input="SourceAlpha"/>
      <feGaussianBlur stdDeviation="3" result="blur"/>
      <feFlood flood-opacity="0.161"/>
      <feComposite operator="in" in2="blur"/>
      <feComposite in="SourceGraphic"/>
    </filter>
  </defs>
  <g id="Group_190" data-name="Group 190" transform="translate(-457.456 -597.384)">
    <g id="Group_187" data-name="Group 187" transform="translate(238.456 -100)">
      <path id="Path_446" data-name="Path 446" d="M29.177,0A29.179,29.179,0,1,1,0,29.177,29.177,29.177,0,0,1,29.177,0Z" transform="translate(220.189 697.384)" fill="#fff"/>
      <path id="Path_447" data-name="Path 447" d="M26.68,0A26.681,26.681,0,1,1,0,26.68,26.68,26.68,0,0,1,26.68,0Z" transform="translate(222.688 699.881)" fill="#fff" opacity="0.31"/>
      <g id="Tabs" transform="translate(141 1008.616)">
        <g id="Tab" transform="translate(84 -297)">
          <g id="Group_186" data-name="Group 186">
            <g transform="matrix(1, 0, 0, 1, -6, -14.23)" filter="url(#Path_364)">
              <g id="Path_364-2" data-name="Path 364" transform="translate(6 6.23)" fill="#fff">
                <path d="M 23.5 46 C 20.46208000183105 46 17.51556015014648 45.40523910522461 14.74228954315186 44.23225021362305 C 12.06313037872314 43.09906005859375 9.656780242919922 41.47658920288086 7.590099811553955 39.4099006652832 C 5.523409843444824 37.34321975708008 3.90093994140625 34.93687057495117 2.767750024795532 32.25770950317383 C 1.594759941101074 29.48443984985352 1 26.53791999816895 1 23.5 C 1 20.46208000183105 1.594759941101074 17.51556015014648 2.767750024795532 14.74228954315186 C 3.90093994140625 12.06313037872314 5.523409843444824 9.656780242919922 7.590099811553955 7.590099811553955 C 9.656780242919922 5.523409843444824 12.06313037872314 3.90093994140625 14.74228954315186 2.767750024795532 C 17.51556015014648 1.594759941101074 20.46208000183105 1 23.5 1 C 26.53791999816895 1 29.48443984985352 1.594759941101074 32.25770950317383 2.767750024795532 C 34.93687057495117 3.90093994140625 37.34321975708008 5.523409843444824 39.4099006652832 7.590099811553955 C 41.47658920288086 9.656780242919922 43.09906005859375 12.06313037872314 44.23225021362305 14.74228954315186 C 45.40523910522461 17.51556015014648 46 20.46208000183105 46 23.5 C 46 26.53791999816895 45.40523910522461 29.48443984985352 44.23225021362305 32.25770950317383 C 43.09906005859375 34.93687057495117 41.47658920288086 37.34321975708008 39.4099006652832 39.4099006652832 C 37.34321975708008 41.47658920288086 34.93687057495117 43.09906005859375 32.25770950317383 44.23225021362305 C 29.48443984985352 45.40523910522461 26.53791999816895 46 23.5 46 Z" stroke="none"/>
                <path d="M 23.5 2 C 20.59663963317871 2 17.78117942810059 2.568180084228516 15.13183975219727 3.688758850097656 C 12.57188034057617 4.771530151367188 10.27236938476562 6.322040557861328 8.297199249267578 8.297199249267578 C 6.322040557861328 10.27236938476562 4.771530151367188 12.57188034057617 3.688758850097656 15.13183975219727 C 2.568180084228516 17.78117942810059 2 20.59663963317871 2 23.5 C 2 26.40336036682129 2.568180084228516 29.21882057189941 3.688758850097656 31.86816024780273 C 4.771530151367188 34.42811965942383 6.322040557861328 36.72763061523438 8.297199249267578 38.70280075073242 C 10.27236938476562 40.67795944213867 12.57188034057617 42.22846984863281 15.13183975219727 43.31124114990234 C 17.78117942810059 44.43181991577148 20.59663963317871 45 23.5 45 C 26.40336036682129 45 29.21882057189941 44.43181991577148 31.86816024780273 43.31124114990234 C 34.42811965942383 42.22846984863281 36.72763061523438 40.67795944213867 38.70280075073242 38.70280075073242 C 40.67795944213867 36.72763061523438 42.22846984863281 34.42811965942383 43.31124114990234 31.86816024780273 C 44.43181991577148 29.21882057189941 45 26.40336036682129 45 23.5 C 45 20.59663963317871 44.43181991577148 17.78117942810059 43.31124114990234 15.13183975219727 C 42.22846984863281 12.57188034057617 40.67795944213867 10.27236938476562 38.70280075073242 8.297199249267578 C 36.72763061523438 6.322040557861328 34.42811965942383 4.771530151367188 31.86816024780273 3.688758850097656 C 29.21882057189941 2.568180084228516 26.40336036682129 2 23.5 2 M 23.5 0 C 36.47869110107422 0 47 10.52130889892578 47 23.5 C 47 36.47869110107422 36.47869110107422 47 23.5 47 C 10.52130889892578 47 0 36.47869110107422 0 23.5 C 0 10.52130889892578 10.52130889892578 0 23.5 0 Z" stroke="none" fill="#000"/>
              </g>
            </g>
            <g id="Camera_1" data-name="Camera – 1" transform="translate(10.414 3)">
              <rect id="Rectangle_252" data-name="Rectangle 252" width="25" height="25" fill="none"/>
              <path id="Path_110" data-name="Path 110" d="M12.586,15.893A3.179,3.179,0,1,0,9.44,12.715,3.172,3.172,0,0,0,12.586,15.893Zm0-9.536a6.358,6.358,0,1,1-6.293,6.357A6.344,6.344,0,0,1,12.586,6.357Zm9.44,17.483H3.147a3.091,3.091,0,0,1-2.2-.954A3.154,3.154,0,0,1,0,20.661V6.357A3.172,3.172,0,0,1,3.147,3.179H5.664L8.024.795A2.593,2.593,0,0,1,9.912,0h5.506a2.515,2.515,0,0,1,1.731.795l2.36,2.384h2.517a3.172,3.172,0,0,1,3.147,3.179v14.3A3.172,3.172,0,0,1,22.026,23.84Z" transform="translate(1 0.722)" fill-rule="evenodd"/>
            </g>
          </g>
        </g>
      </g>
    </g>
  </g>
</svg>
